<?xml version="1.0" encoding="utf-8"?>
<!-- Generator: Adobe Illustrator 16.0.4, SVG Export Plug-In . SVG Version: 6.00 Build 0)  -->
<!DOCTYPE svg PUBLIC "-//W3C//DTD SVG 1.1//EN" "http://www.w3.org/Graphics/SVG/1.1/DTD/svg11.dtd">
<svg version="1.1" xmlns="http://www.w3.org/2000/svg" xmlns:xlink="http://www.w3.org/1999/xlink" x="0px" y="0px" width="1366px"
	 height="700px" viewBox="0 0 1366 700" enable-background="new 0 0 1366 700" xml:space="preserve">
<g id="BG">
	<g>
		<rect id="XMLID_113_" x="0.3" y="-4" fill="#102037" width="1366" height="701"/>
		<g id="XMLID_106_">
			<path id="XMLID_111_" fill="#142946" d="M1366.1-3.8v237.9c-38.9-2.2-80.6-7.5-123.7-16.4C1047,177.5,892.1,80.5,884.8-3.8
				H1366.1z"/>
			<path id="XMLID_107_" fill="#1B3556" d="M1366.1-3.8v137c-34.9,5-72.4,7.7-111.4,7.6c-187.6-0.5-339.7-65.2-340.8-144.6H1366.1z"
				/>
		</g>
		<g id="XMLID_76_">
			<path id="XMLID_103_" fill="#1B3556" d="M0.3,697V539.2c39.4-5.8,81.8-8.9,125.8-8.8C337.9,531,509.7,605.5,511,697H0.3z"/>
		</g>
	</g>
</g>
<g id="STARS">
	<g>
		<polygon id="XMLID_214_" fill="#FFFFFF" points="163.1,181.9 161.6,176.8 156.5,175.3 161.6,173.8 163.1,168.7 164.7,173.8 
			169.7,175.3 164.7,176.8 		"/>
		<polygon id="XMLID_213_" fill="#FFFFFF" points="94,26.2 92.5,21.1 87.4,19.6 92.5,18.1 94,13 95.6,18.1 100.6,19.6 95.6,21.1 		
			"/>
		<polygon id="XMLID_212_" fill="#FFFFFF" points="908.7,295.2 907.2,290.2 902.1,288.6 907.2,287.1 908.7,282 910.3,287.1 
			915.3,288.6 910.3,290.2 		"/>
		<polygon id="XMLID_211_" fill="#FFFFFF" points="1159.7,26.2 1158.1,21.1 1153.1,19.6 1158.1,18.1 1159.7,13 1161.2,18.1 
			1166.3,19.6 1161.2,21.1 		"/>
		<polygon id="XMLID_210_" fill="#FFFFFF" points="48.2,161.2 43.3,159.3 38.9,162.3 40.9,157.4 37.8,153.1 42.7,155 47.1,152 
			45.2,156.9 		"/>
		<polygon id="XMLID_209_" fill="#FFFFFF" points="759.4,158.4 754.5,156.5 750.1,159.6 752,154.6 749,150.3 753.9,152.2 
			758.3,149.2 756.3,154.1 		"/>
		<polygon id="XMLID_208_" fill="#FFFFFF" points="1024.4,408.5 1019.4,406.6 1015.1,409.7 1017,404.7 1014,400.4 1018.9,402.3 
			1023.2,399.3 1021.3,404.2 		"/>
		<polygon id="XMLID_207_" fill="#FFFFFF" points="1322.3,513.5 1323.5,508.4 1319.8,504.5 1325,505.7 1328.8,502 1327.6,507.2 
			1331.3,511 1326.1,509.9 		"/>
		<polygon id="XMLID_206_" fill="#FFFFFF" points="324.6,590.5 323.1,585.4 318,583.9 323.1,582.3 324.6,577.3 326.1,582.3 
			331.2,583.9 326.1,585.4 		"/>
		<polygon id="XMLID_204_" fill="#FFFFFF" points="1183,593.2 1181.4,588.1 1176.4,586.6 1181.4,585 1183,580 1184.5,585 
			1189.6,586.6 1184.5,588.1 		"/>
		<polygon id="XMLID_203_" fill="#FFFFFF" points="954.4,160.9 949,157.8 943.5,160.6 946.6,155.2 943.8,149.7 949.2,152.8 
			954.7,150 951.6,155.4 		"/>
		<polygon id="XMLID_202_" fill="#FFFFFF" points="293,105.8 281.6,105.9 275.3,115.4 275.3,104 265.8,97.8 277.1,97.7 283.4,88.2 
			283.4,99.6 		"/>
		<polygon id="XMLID_201_" fill="#FFFFFF" points="889.8,678.6 888.3,673.5 883.2,672 888.3,670.4 889.8,665.4 891.4,670.4 
			896.4,672 891.4,673.5 		"/>
		<polygon id="XMLID_200_" fill="#FFFFFF" points="819.2,635.3 814.3,633.4 809.9,636.4 811.8,631.5 808.8,627.2 813.7,629.1 
			818.1,626 816.1,631 		"/>
		<polygon id="XMLID_199_" fill="#FFFFFF" points="1019.6,602.5 1008.3,602.6 1002,612.1 1002,600.7 992.4,594.4 1003.8,594.4 
			1010.1,584.9 1010.1,596.3 		"/>
		<polygon id="XMLID_197_" fill="#FFFFFF" points="1046.1,305.6 1034.7,306.4 1029.1,316.3 1028.3,304.9 1018.4,299.3 1029.8,298.5 
			1035.5,288.6 1036.2,300 		"/>
		<polygon id="XMLID_149_" fill="#FFFFFF" points="105.6,460.7 106.8,471 117.1,472.3 106.8,473.5 105.6,483.8 104.3,473.5 
			94,472.3 104.3,471 		"/>
		<polygon id="XMLID_145_" fill="#FFFFFF" points="1078.3,184.7 1085.4,192.3 1094.5,187.3 1086.8,194.3 1091.8,203.4 1084.8,195.8 
			1075.7,200.8 1083.3,193.7 		"/>
		<polygon id="XMLID_144_" fill="#FFFFFF" points="666.7,566 665.2,560.9 660.1,559.4 665.2,557.8 666.7,552.8 668.3,557.8 
			673.3,559.4 668.3,560.9 		"/>
		<polygon id="XMLID_143_" fill="#FFFFFF" points="752.6,466.7 759.7,474.3 768.8,469.3 761.1,476.4 766.2,485.4 759.1,477.8 
			750,482.8 757.6,475.8 		"/>
		<polygon id="XMLID_142_" fill="#FFFFFF" points="1333.9,304.7 1340.9,312.3 1350,307.3 1342.4,314.4 1347.4,323.4 1340.4,315.8 
			1331.3,320.8 1338.9,313.8 		"/>
		<polygon id="XMLID_141_" fill="#FFFFFF" points="468.6,391.3 463.6,389.4 459.3,392.5 461.2,387.5 458.2,383.2 463.1,385.1 
			467.4,382.1 465.5,387 		"/>
		<polygon id="XMLID_139_" fill="#FFFFFF" points="585.3,243.9 573.9,244.7 568.3,254.6 567.5,243.2 557.6,237.6 569,236.8 
			574.7,226.9 575.4,238.3 		"/>
		<polygon id="XMLID_138_" fill="#FFFFFF" points="1221.6,359 1222.8,369.3 1233.1,370.5 1222.8,371.8 1221.6,382.1 1220.3,371.8 
			1210,370.5 1220.3,369.3 		"/>
		<polygon id="XMLID_137_" fill="#FFFFFF" points="752.6,304.7 759.7,312.3 768.8,307.3 761.1,314.4 766.2,323.4 759.1,315.8 
			750,320.8 757.6,313.8 		"/>
		<polygon id="XMLID_135_" fill="#FFFFFF" points="526.4,76.9 515.1,77.6 509.4,87.5 508.6,76.2 498.8,70.5 510.1,69.7 515.8,59.9 
			516.5,71.2 		"/>
		<polygon id="XMLID_134_" fill="#FFFFFF" points="1024.4,-20.8 1025.6,-10.5 1035.9,-9.3 1025.6,-8 1024.4,2.3 1023.1,-8 
			1012.8,-9.3 1023.1,-10.5 		"/>
		<polygon id="XMLID_133_" fill="#FFFFFF" points="731.7,44 738.7,51.6 747.8,46.6 740.2,53.7 745.2,62.8 738.2,55.1 729.1,60.2 
			736.7,53.1 		"/>
		<polygon id="XMLID_132_" fill="#FFFFFF" points="1242.9,643.3 1244.1,653.6 1254.4,654.8 1244.1,656.1 1242.9,666.4 1241.6,656.1 
			1231.3,654.8 1241.6,653.6 		"/>
		<polygon id="XMLID_131_" fill="#FFFFFF" points="585.3,432.1 583.8,427.1 578.7,425.5 583.8,424 585.3,418.9 586.8,424 
			591.9,425.5 586.8,427.1 		"/>
		<polygon id="XMLID_130_" fill="#FFFFFF" points="480.1,555.1 481.4,565.4 491.7,566.6 481.4,567.9 480.1,578.2 478.9,567.9 
			468.6,566.6 478.9,565.4 		"/>
		<polygon id="XMLID_129_" fill="#FFFFFF" points="141.1,631.7 142.3,642 152.6,643.3 142.3,644.5 141.1,654.8 139.8,644.5 
			129.5,643.3 139.8,642 		"/>
	</g>
</g>
<g id="ASTRONAUT">
	<g>
		<g>
			<path fill="#CFDDE3" d="M971.3,559l0-17c0.9,0,91.7-0.9,106.1-67.9c9.8-45.6-9-71.3-27.2-96.2c-18.5-25.4-37.7-51.7-19.7-94.1
				c20.6-48.7,79.1-33.6,81.6-33l-3.1,16.6c-0.5-0.1-50.2-12.8-65.9,24.1c-13.6,32.1-0.5,50.2,17.8,75.2
				c18.6,25.6,41.9,57.4,30.2,111.7c-7.2,33.4-30.4,58-67.3,71C996.9,558.9,972.4,559,971.3,559z"/>
			<g id="XMLID_146_">
				<path id="XMLID_198_" fill="#91B7C9" d="M993.4,657.4L939,688.5c-24.2,13.8-55.1,5.4-68.9-18.9l-46.9-82.3
					c-15.3-26.9-5.9-61.5,21-76.8l44.4-25.4c26.9-15.3,61.4-5.9,76.8,21l46.9,82.3C1026.1,612.7,1017.7,643.6,993.4,657.4z"/>
				<g id="XMLID_147_">
					<g id="XMLID_194_">
						<path id="XMLID_196_" fill="#DFE8E6" d="M842.4,730.2l81.9,11l4.4-32.6l-49.4-6.6C861.3,699.6,844.8,712.2,842.4,730.2
							L842.4,730.2z"/>
						<polygon id="XMLID_195_" fill="#6E98AD" points="921.6,761.2 839.7,750.2 842.4,730.2 924.3,741.2 						"/>
					</g>
					<g id="XMLID_188_">
						<path id="XMLID_192_" fill="#DFE8E6" d="M890.5,615.4l-11.6,86.5l49.7,6.7l6.1-45.4c1.4-10.6,8.3-18.8,17.1-22.7
							c-4.8-6.3-9.6-12.6-14.8-18.8L890.5,615.4z"/>
						<path id="XMLID_191_" fill="#FFFFFF" d="M956.3,577.9l-18.6,43.9l-0.7-0.1c5.2,6.2,10,12.5,14.8,18.8c7-3.1,15.2-3.5,23-0.2
							l42.2,17.9l19.6-46.2L956.3,577.9z"/>
						<path id="XMLID_190_" fill="#FFFFFF" d="M1079.5,594.9l-32.3,76.1l-30.2-12.8l19.5-45.9
							C1043.5,595.6,1062.8,587.8,1079.5,594.9L1079.5,594.9z"/>
						<polygon id="XMLID_189_" fill="#ADCEDE" points="1065.8,678.9 1098.1,602.8 1079.5,594.9 1047.2,671 						"/>
					</g>
					<g id="XMLID_162_">
						<g id="XMLID_186_">
							<path id="XMLID_187_" fill="#FFFFFF" d="M980,526.1l-50.3,28.7c-9.8,5.6-22.3,2.2-27.8-7.6c-5.6-9.8-2.2-22.3,7.6-27.9
								l50.3-28.7c3.9-2.2,5.3-7.2,3-11.1l-25.3-44.3c-5.6-9.8-2.2-22.3,7.6-27.9c9.8-5.6,22.3-2.2,27.8,7.6l25.3,44.3
								C1011.7,482.7,1003.5,512.7,980,526.1z"/>
						</g>
						<g id="XMLID_182_">
							<g>
								<path id="XMLID_21_" fill="#DFE8E6" d="M830.5,611.5l50.3-28.7c9.8-5.6,13.2-18.1,7.6-27.9c-5.6-9.8-18-13.2-27.8-7.6
									L810.3,576c-3.9,2.2-8.9,0.9-11.1-3l-25.3-44.3c-5.6-9.8-18-13.2-27.8-7.6c-9.8,5.6-13.2,18.1-7.6,27.9l25.3,44.3
									C777.1,616.6,807,624.8,830.5,611.5z"/>
							</g>
						</g>
						<polygon id="XMLID_181_" fill="#FFFFFF" points="900.6,447.5 898.4,440 890.8,437.7 898.3,435.4 900.6,427.9 902.9,435.4 
							910.4,437.7 902.9,440 						"/>
						<path id="XMLID_178_" fill="#FFFFFF" d="M994.3,593.7l-110.6,63.1L846,590.6c-10-17.5-3.8-40,13.7-50l47-26.8
							c17.5-10,40-3.8,50,13.7L994.3,593.7z"/>
						<path id="XMLID_176_" fill="#DFE8E6" d="M913.4,656.8L866,575.8c-7.4-13.1-5.9-28.9,2.6-40.2l-8.9,5.1
							c-17.5,10-23.6,32.5-13.7,50l37.7,66.1H913.4z"/>
						<path id="XMLID_175_" fill="#ADCEDE" d="M921.7,525.1l-57.3,32.7c-7.4,4.2-16.9,1.6-21.1-5.8l0,0c-4.2-7.4-1.6-16.9,5.8-21.2
							l57.3-32.7c7.4-4.2,16.9-1.6,21.1,5.8l0,0C931.7,511.3,929.1,520.8,921.7,525.1z"/>
						<path id="XMLID_173_" fill="#FFFFFF" d="M920.1,443.3c18.1,31.7,4.4,73.5-30.5,93.4s-77.8,10.3-95.9-21.3
							c-18.1-31.7-4.4-73.5,30.5-93.4C859.1,402.1,902,411.6,920.1,443.3z"/>
						<path id="XMLID_171_" fill="#DFE8E6" d="M927.7,467.4c-2.2,22.3-15.8,44-38.1,56.8c-34.9,19.9-77.8,10.3-95.9-21.3
							c-4.3-7.6-6.8-15.8-7.6-24.1c-1.2,12.5,1.2,25.2,7.7,36.6c18.1,31.7,61,41.2,95.9,21.3C916.1,521.6,930.4,493.8,927.7,467.4z"
							/>
						<path id="XMLID_169_" fill="#1990C7" d="M895.3,444.9l10.8,18.9c8.1,14.3,3.1,32.7-11.2,40.8L859.3,525
							c-14.3,8.2-32.7,3.1-40.8-11.2l-10.8-18.9c-8.1-14.3-3.1-32.7,11.2-40.8l35.6-20.3C868.8,425.6,887.2,430.6,895.3,444.9z"/>
						<path id="XMLID_168_" fill="#19ADC7" d="M895.3,444.9l5.9,10.3c-10.9,10.7-24.8,21.2-40.8,30.3c-16,9.1-32,15.7-46.8,19.7
							l-5.9-10.3c-8.1-14.3-3.1-32.7,11.2-40.8l35.6-20.3C868.8,425.6,887.2,430.6,895.3,444.9z"/>
						<path id="XMLID_166_" fill="#6E98AD" d="M806.4,537.5L806.4,537.5c-4.8,2.7-10.9,1-13.6-3.7l-12.1-21.3
							c-2.7-4.8-1-10.9,3.7-13.6l0,0c4.8-2.7,10.9-1,13.6,3.7l12.1,21.3C812.8,528.7,811.1,534.8,806.4,537.5z"/>
						<path id="XMLID_164_" fill="#ADCEDE" d="M932.7,465.5L932.7,465.5c-4.8,2.7-10.9,1-13.6-3.7L907,440.4
							c-2.7-4.8-1-10.9,3.7-13.6l0,0c4.8-2.7,10.9-1,13.6,3.7l12.1,21.3C939.1,456.6,937.4,462.7,932.7,465.5z"/>
						
							<rect id="XMLID_163_" x="833.1" y="539" transform="matrix(-0.8689 0.495 -0.495 -0.8689 1826.8269 594.1078)" fill="#ADCEDE" width="3.3" height="0"/>
					</g>
					<polygon id="XMLID_161_" fill="#ADCEDE" points="958.1,576.9 890.8,615.2 869.6,578.1 936.9,539.7 					"/>
					<path id="XMLID_160_" fill="#FFFFFF" d="M946.2,569.3c1.8,3.2,0.7,7.2-2.5,9.1c-3.2,1.8-7.2,0.7-9-2.5s-0.7-7.2,2.5-9.1
						C940.4,565,944.4,566.1,946.2,569.3z"/>
					<path id="XMLID_159_" fill="#FFFFFF" d="M933.9,555.6c0.7,1.3,0.3,3-1,3.7c-1.3,0.7-3,0.3-3.7-1c-0.7-1.3-0.3-3,1-3.7
						C931.5,553.8,933.2,554.3,933.9,555.6z"/>
					
						<rect id="XMLID_158_" x="882.8" y="571.8" transform="matrix(0.8685 -0.4956 0.4956 0.8685 -166.153 520.8229)" fill="#FFFFFF" width="31.8" height="3.6"/>
					
						<rect id="XMLID_157_" x="888.2" y="581.3" transform="matrix(0.8686 -0.4956 0.4956 0.8686 -170.1228 524.6932)" fill="#FFFFFF" width="31.8" height="3.6"/>
					
						<rect id="XMLID_156_" x="893.5" y="590.7" transform="matrix(0.8685 -0.4957 0.4957 0.8685 -174.0989 528.6826)" fill="#FFFFFF" width="31.8" height="3.6"/>
					<path id="XMLID_154_" fill="#6E98AD" d="M785.9,558.5l-29.1,16.6c-3.3,1.9-7.5,0.7-9.4-2.6l-1.2-2.1c-1.9-3.3-0.7-7.5,2.6-9.4
						l29.1-16.6c3.3-1.9,7.5-0.7,9.4,2.6l1.2,2.1C790.4,552.4,789.2,556.6,785.9,558.5z"/>
					<path id="XMLID_152_" fill="#ADCEDE" d="M987.2,443.7l-29.1,16.6c-3.3,1.9-7.5,0.7-9.4-2.6l-1.2-2.1c-1.9-3.3-0.7-7.5,2.6-9.4
						l29.1-16.6c3.3-1.9,7.5-0.7,9.4,2.6l1.2,2.1C991.6,437.6,990.5,441.8,987.2,443.7z"/>
					<path id="XMLID_150_" fill="#6E98AD" d="M936.2,666.3l-54.8-2.6c-3.2-0.2-5.7-2.9-5.6-6.1l0,0c0.2-3.2,2.9-5.7,6.1-5.6
						l54.8,2.6c3.2,0.2,5.7,2.9,5.6,6.1l0,0C942.2,663.9,939.4,666.4,936.2,666.3z"/>
					<path id="XMLID_148_" fill="#ADCEDE" d="M979.4,641.6l25.7-48.5c1.5-2.9,0.4-6.4-2.4-7.9l0,0c-2.9-1.5-6.4-0.4-7.9,2.4
						L969,636.1c-1.5,2.9-0.4,6.4,2.4,7.9l0,0C974.3,645.6,977.9,644.5,979.4,641.6z"/>
				</g>
			</g>
		</g>
		<g>
			<path fill="#3D4D5C" d="M1293.1,297.2h-197.9c-2.2,0-4.5-1.1-4.8-4.3v-3l21.7-40c1.2-2.3,3.6-3.8,6.2-3.8h151.4
				c2.8,0,9.1,5.6,10.3,8.1l17.9,36.4v1.3C1297.9,295.7,1295.5,297.2,1293.1,297.2z"/>
			<path fill="#B7CDD8" d="M1293.1,293h-197.9c-2.2,0-5.8-1.9-4.5-4.3l21.4-43c1.2-2.3,3.6-3.8,6.2-3.8h151.4c2.8,0,5.4,1.6,6.7,4.1
				l21.1,42.3C1299,291,1295.5,293,1293.1,293z"/>
			<rect x="1112.1" y="135.2" fill="#3D4D5C" width="162.1" height="102.4"/>
			<rect x="1118.3" y="140.8" fill="#231F20" width="149.5" height="88.7"/>
			<path fill="#52677A" d="M1222.8,291.1h-58.3c-0.6,0-1.1-0.6-1-1.2l2.5-15.4c0.1-0.8,0.8-1.4,1.7-1.4h52.6c0.7,0,1.4,0.5,1.5,1.3
				l2.3,15.4C1224.1,290.5,1223.5,291.1,1222.8,291.1z"/>
			<path fill="#52677A" d="M1127.1,251.1h-6.3c-0.9,0-1.5-0.3-1.4-0.6l0.4-0.9c0.1-0.3,0.9-0.6,1.8-0.6h6.3c0.9,0,1.5,0.3,1.4,0.6
				l-0.3,0.9C1128.8,250.8,1128,251.1,1127.1,251.1z"/>
			<path fill="#52677A" d="M1137.8,251.1h-6.3c-0.9,0-1.5-0.3-1.4-0.6l0.3-0.9c0.1-0.3,0.9-0.6,1.8-0.6h6.3c0.9,0,1.5,0.3,1.4,0.6
				l-0.3,0.9C1139.4,250.8,1138.6,251.1,1137.8,251.1z"/>
			<path fill="#52677A" d="M1148.4,251.1h-6.3c-0.9,0-1.5-0.3-1.4-0.6l0.3-0.9c0.1-0.3,0.9-0.6,1.7-0.6h6.3c0.9,0,1.5,0.3,1.4,0.6
				l-0.2,0.9C1150.1,250.8,1149.3,251.1,1148.4,251.1z"/>
			<path fill="#52677A" d="M1159.1,251.1h-6.3c-0.9,0-1.5-0.3-1.5-0.6l0.2-0.9c0.1-0.3,0.8-0.6,1.7-0.6h6.3c0.9,0,1.5,0.3,1.5,0.6
				l-0.2,0.9C1160.7,250.8,1160,251.1,1159.1,251.1z"/>
			<path fill="#52677A" d="M1169.8,251.1h-6.3c-0.9,0-1.6-0.3-1.5-0.6l0.2-0.9c0.1-0.3,0.8-0.6,1.7-0.6h6.3c0.9,0,1.5,0.3,1.5,0.6
				l-0.1,0.9C1171.4,250.8,1170.6,251.1,1169.8,251.1z"/>
			<path fill="#52677A" d="M1180.4,251.1h-6.3c-0.9,0-1.6-0.3-1.5-0.6l0.1-0.9c0-0.3,0.8-0.6,1.6-0.6h6.3c0.9,0,1.6,0.3,1.5,0.6
				l-0.1,0.9C1182,250.8,1181.3,251.1,1180.4,251.1z"/>
			<path fill="#52677A" d="M1191.1,251.1h-6.3c-0.9,0-1.6-0.3-1.6-0.6l0.1-0.9c0-0.3,0.7-0.6,1.6-0.6h6.3c0.9,0,1.6,0.3,1.6,0.6
				l0,0.9C1192.7,250.8,1192,251.1,1191.1,251.1z"/>
			<path fill="#52677A" d="M1201.8,251.1h-6.3c-0.9,0-1.6-0.3-1.6-0.6l0-0.9c0-0.3,0.7-0.6,1.6-0.6h6.3c0.9,0,1.6,0.3,1.6,0.6
				l0.1,0.9C1203.4,250.8,1202.7,251.1,1201.8,251.1z"/>
			<path fill="#52677A" d="M1212.4,251.1h-6.3c-0.9,0-1.6-0.3-1.6-0.6l-0.1-0.9c0-0.3,0.7-0.6,1.5-0.6h6.3c0.9,0,1.6,0.3,1.6,0.6
				l0.1,0.9C1214,250.8,1213.3,251.1,1212.4,251.1z"/>
			<path fill="#52677A" d="M1223.1,251.1h-6.3c-0.9,0-1.6-0.3-1.7-0.6l-0.1-0.9c0-0.3,0.6-0.6,1.5-0.6h6.3c0.9,0,1.6,0.3,1.7,0.6
				l0.2,0.9C1224.7,250.8,1224,251.1,1223.1,251.1z"/>
			<path fill="#52677A" d="M1233.8,251.1h-6.3c-0.9,0-1.6-0.3-1.7-0.6l-0.2-0.9c-0.1-0.3,0.6-0.6,1.5-0.6h6.3c0.9,0,1.6,0.3,1.7,0.6
				l0.2,0.9C1235.3,250.8,1234.7,251.1,1233.8,251.1z"/>
			<path fill="#52677A" d="M1244.5,251.1h-6.3c-0.9,0-1.7-0.3-1.7-0.6l-0.2-0.9c-0.1-0.3,0.6-0.6,1.4-0.6h6.3c0.9,0,1.7,0.3,1.7,0.6
				l0.3,0.9C1246,250.8,1245.3,251.1,1244.5,251.1z"/>
			<path fill="#52677A" d="M1255.1,251.1h-6.3c-0.9,0-1.7-0.3-1.8-0.6l-0.3-0.9c-0.1-0.3,0.5-0.6,1.4-0.6h6.3c0.9,0,1.7,0.3,1.8,0.6
				l0.3,0.9C1256.6,250.8,1256,251.1,1255.1,251.1z"/>
			<path fill="#52677A" d="M1265.8,251.1h-6.3c-0.9,0-1.7-0.3-1.8-0.6l-0.3-0.9c-0.1-0.3,0.5-0.6,1.4-0.6h6.3c0.9,0,1.7,0.3,1.8,0.6
				l0.4,0.9C1267.3,250.8,1266.7,251.1,1265.8,251.1z"/>
			<path fill="#52677A" d="M1126.5,254.6h-8.1c-0.2,0-0.3-0.1-0.3-0.1l1.2-3c0-0.1,0.2-0.1,0.4-0.1h7.9c0.2,0,0.3,0.1,0.3,0.1
				l-1.1,3C1126.9,254.5,1126.7,254.6,1126.5,254.6z"/>
			<path fill="#52677A" d="M1141.4,258.5h-8.2c-0.2,0-0.3-0.1-0.3-0.1l1-3.1c0-0.1,0.2-0.1,0.4-0.1h8.1c0.2,0,0.3,0.1,0.3,0.1
				l-0.8,3.1C1141.8,258.4,1141.6,258.5,1141.4,258.5z"/>
			<path fill="#52677A" d="M1142.8,262.5h-8.4c-0.2,0-0.4-0.1-0.3-0.1l1-3.2c0-0.1,0.2-0.1,0.4-0.1h8.3c0.2,0,0.4,0.1,0.3,0.1
				l-0.8,3.2C1143.2,262.4,1143,262.5,1142.8,262.5z"/>
			<path fill="#52677A" d="M1147.5,266.7h-8.6c-0.2,0-0.4-0.1-0.3-0.2l0.9-3.4c0-0.1,0.2-0.1,0.4-0.1h8.4c0.2,0,0.4,0.1,0.3,0.1
				l-0.8,3.4C1147.9,266.7,1147.7,266.7,1147.5,266.7z"/>
			<path fill="#52677A" d="M1120.4,271.6h-8.8c-0.2,0-0.4-0.1-0.4-0.2l1.6-4c0-0.1,0.3-0.2,0.5-0.2h8.6c0.2,0,0.4,0.1,0.4,0.2
				l-1.4,4C1120.8,271.6,1120.6,271.6,1120.4,271.6z"/>
			<path fill="#52677A" d="M1132.1,271.6h-8.8c-0.2,0-0.4-0.1-0.4-0.2l1.4-4c0-0.1,0.2-0.2,0.5-0.2h8.6c0.2,0,0.4,0.1,0.4,0.2
				l-1.2,4C1132.5,271.6,1132.3,271.6,1132.1,271.6z"/>
			<path fill="#52677A" d="M1143.4,271.6h-8.8c-0.2,0-0.4-0.1-0.4-0.2l1.2-4c0-0.1,0.2-0.2,0.5-0.2h8.6c0.2,0,0.4,0.1,0.4,0.2l-1,4
				C1143.9,271.6,1143.7,271.6,1143.4,271.6z"/>
			<path fill="#52677A" d="M1157.7,271.6h-11.6c-0.3,0-0.5-0.1-0.4-0.2l0.9-3.9c0-0.1,0.3-0.2,0.5-0.2h11.3c0.3,0,0.5,0.1,0.4,0.2
				l-0.7,3.9C1158.2,271.5,1158,271.6,1157.7,271.6z"/>
			<path fill="#52677A" d="M1228.9,271.6h-11.6c-0.3,0-0.5-0.1-0.5-0.2l-0.5-3.9c0-0.1,0.2-0.2,0.5-0.2h11.3c0.3,0,0.5,0.1,0.5,0.2
				l0.7,3.9C1229.4,271.5,1229.2,271.6,1228.9,271.6z"/>
			<path fill="#52677A" d="M1240.6,271.6h-8.6c-0.2,0-0.4-0.1-0.5-0.2l-0.8-4c0-0.1,0.2-0.2,0.4-0.2h8.5c0.2,0,0.4,0.1,0.4,0.2
				l0.9,4C1241,271.6,1240.8,271.6,1240.6,271.6z"/>
			<path fill="#52677A" d="M1214.4,271.6h-53.4c-0.6,0-1-0.2-0.9-0.4l0.6-3.5c0-0.2,0.5-0.4,1.1-0.4h52.2c0.5,0,1,0.2,1,0.4l0.4,3.5
				C1215.4,271.4,1215,271.6,1214.4,271.6z"/>
			<path fill="#52677A" d="M1158.7,266.7h-8.6c-0.2,0-0.4-0.1-0.4-0.2l0.7-3.4c0-0.1,0.2-0.1,0.4-0.1h8.4c0.2,0,0.4,0.1,0.4,0.1
				l-0.6,3.4C1159.1,266.7,1158.9,266.7,1158.7,266.7z"/>
			<path fill="#52677A" d="M1169.8,266.7h-8.6c-0.2,0-0.4-0.1-0.4-0.2l0.5-3.4c0-0.1,0.2-0.1,0.4-0.1h8.4c0.2,0,0.4,0.1,0.4,0.1
				l-0.4,3.4C1170.2,266.7,1170.1,266.7,1169.8,266.7z"/>
			<path fill="#52677A" d="M1181,266.7h-8.6c-0.2,0-0.4-0.1-0.4-0.2l0.4-3.4c0-0.1,0.2-0.1,0.4-0.1h8.4c0.2,0,0.4,0.1,0.4,0.1
				l-0.2,3.4C1181.4,266.7,1181.2,266.7,1181,266.7z"/>
			<path fill="#52677A" d="M1192.2,266.7h-8.6c-0.2,0-0.4-0.1-0.4-0.2l0.2-3.4c0-0.1,0.2-0.1,0.4-0.1h8.4c0.2,0,0.4,0.1,0.4,0.1
				l0,3.4C1192.6,266.7,1192.4,266.7,1192.2,266.7z"/>
			<path fill="#52677A" d="M1203.4,266.7h-8.6c-0.2,0-0.4-0.1-0.4-0.2l0-3.4c0-0.1,0.2-0.1,0.4-0.1h8.4c0.2,0,0.4,0.1,0.4,0.1
				l0.2,3.4C1203.7,266.7,1203.6,266.7,1203.4,266.7z"/>
			<path fill="#52677A" d="M1214.5,266.7h-8.6c-0.2,0-0.4-0.1-0.4-0.2l-0.2-3.4c0-0.1,0.2-0.1,0.4-0.1h8.4c0.2,0,0.4,0.1,0.4,0.1
				l0.4,3.4C1214.9,266.7,1214.7,266.7,1214.5,266.7z"/>
			<path fill="#52677A" d="M1225.7,266.7h-8.6c-0.2,0-0.4-0.1-0.4-0.2l-0.4-3.4c0-0.1,0.2-0.1,0.4-0.1h8.4c0.2,0,0.4,0.1,0.4,0.1
				l0.6,3.4C1226.1,266.7,1225.9,266.7,1225.7,266.7z"/>
			<path fill="#52677A" d="M1236.9,266.7h-8.6c-0.2,0-0.4-0.1-0.4-0.2l-0.6-3.4c0-0.1,0.1-0.1,0.4-0.1h8.4c0.2,0,0.4,0.1,0.4,0.1
				l0.8,3.4C1237.2,266.7,1237.1,266.7,1236.9,266.7z"/>
			<path fill="#52677A" d="M1251,271.7h-6.7c-0.9,0-1.6-0.3-1.7-0.6l-0.2-1c-0.1-0.3,0.5-0.6,1.4-0.6h6.6c0.8,0,1.6,0.3,1.7,0.6
				l0.3,1C1252.4,271.4,1251.8,271.7,1251,271.7z"/>
			<path fill="#52677A" d="M1262.5,271.7h-6.7c-0.9,0-1.6-0.3-1.7-0.6l-0.3-1c-0.1-0.3,0.5-0.6,1.3-0.6h6.6c0.8,0,1.6,0.3,1.7,0.6
				l0.4,1C1263.9,271.4,1263.3,271.7,1262.5,271.7z"/>
			<path fill="#52677A" d="M1261.6,269.2h-6.6c-0.8,0-1.6-0.3-1.7-0.6l-0.3-1c-0.1-0.3,0.5-0.6,1.3-0.6h6.5c0.8,0,1.6,0.3,1.7,0.6
				l0.3,1C1263,268.9,1262.4,269.2,1261.6,269.2z"/>
			<path fill="#52677A" d="M1274,271.7h-6.7c-0.9,0-1.6-0.3-1.8-0.6l-0.4-1c-0.1-0.3,0.5-0.6,1.3-0.6h6.6c0.8,0,1.6,0.3,1.8,0.6
				l0.4,1C1275.4,271.4,1274.8,271.7,1274,271.7z"/>
			<path fill="#52677A" d="M1153.8,262.5h-8.4c-0.2,0-0.4-0.1-0.3-0.1l0.8-3.2c0-0.1,0.2-0.1,0.4-0.1h8.3c0.2,0,0.4,0.1,0.3,0.1
				l-0.6,3.2C1154.2,262.4,1154,262.5,1153.8,262.5z"/>
			<path fill="#52677A" d="M1164.8,262.5h-8.4c-0.2,0-0.4-0.1-0.4-0.1l0.6-3.2c0-0.1,0.2-0.1,0.4-0.1h8.3c0.2,0,0.4,0.1,0.4,0.1
				l-0.5,3.2C1165.2,262.4,1165,262.5,1164.8,262.5z"/>
			<path fill="#52677A" d="M1175.9,262.5h-8.4c-0.2,0-0.4-0.1-0.4-0.1l0.4-3.2c0-0.1,0.2-0.1,0.4-0.1h8.3c0.2,0,0.4,0.1,0.4,0.1
				l-0.3,3.2C1176.2,262.4,1176.1,262.5,1175.9,262.5z"/>
			<path fill="#52677A" d="M1186.8,262.5h-8.4c-0.2,0-0.4-0.1-0.4-0.1l0.2-3.2c0-0.1,0.2-0.1,0.4-0.1h8.3c0.2,0,0.4,0.1,0.4,0.1
				l-0.1,3.2C1187.2,262.4,1187,262.5,1186.8,262.5z"/>
			<path fill="#52677A" d="M1197.9,262.5h-8.4c-0.2,0-0.4-0.1-0.4-0.1l0.1-3.2c0-0.1,0.2-0.1,0.4-0.1h8.3c0.2,0,0.4,0.1,0.4,0.1
				l0.1,3.2C1198.2,262.4,1198.1,262.5,1197.9,262.5z"/>
			<path fill="#52677A" d="M1208.4,262.5h-8.4c-0.2,0-0.4-0.1-0.4-0.1l-0.1-3.2c0-0.1,0.2-0.1,0.4-0.1h8.3c0.2,0,0.4,0.1,0.4,0.1
				l0.3,3.2C1208.8,262.4,1208.6,262.5,1208.4,262.5z"/>
			<path fill="#52677A" d="M1219.4,262.5h-8.4c-0.2,0-0.4-0.1-0.4-0.1l-0.3-3.2c0-0.1,0.2-0.1,0.4-0.1h8.3c0.2,0,0.4,0.1,0.4,0.1
				l0.4,3.2C1219.7,262.4,1219.6,262.5,1219.4,262.5z"/>
			<path fill="#52677A" d="M1230.3,262.5h-8.4c-0.2,0-0.4-0.1-0.4-0.1l-0.5-3.2c0-0.1,0.1-0.1,0.4-0.1h8.3c0.2,0,0.4,0.1,0.4,0.1
				l0.6,3.2C1230.7,262.4,1230.5,262.5,1230.3,262.5z"/>
			<path fill="#52677A" d="M1241.2,262.5h-8.4c-0.2,0-0.4-0.1-0.4-0.1l-0.7-3.2c0-0.1,0.1-0.1,0.3-0.1h8.3c0.2,0,0.4,0.1,0.4,0.1
				l0.8,3.2C1241.5,262.4,1241.4,262.5,1241.2,262.5z"/>
			<path fill="#52677A" d="M1252,262.5h-8.4c-0.2,0-0.4-0.1-0.4-0.1l-0.8-3.2c0-0.1,0.1-0.1,0.3-0.1h8.3c0.2,0,0.4,0.1,0.4,0.1
				l1,3.2C1252.4,262.4,1252.2,262.5,1252,262.5z"/>
			<path fill="#52677A" d="M1247.9,266.7h-8.6c-0.2,0-0.4-0.1-0.4-0.2l-0.8-3.4c0-0.1,0.1-0.1,0.3-0.1h8.4c0.2,0,0.4,0.1,0.4,0.1
				l0.9,3.4C1248.3,266.7,1248.2,266.7,1247.9,266.7z"/>
			<path fill="#52677A" d="M1271.3,262.5H1255c-0.3,0-0.5-0.1-0.6-0.2l-1-3.1c0-0.1,0.2-0.2,0.4-0.2h16c0.3,0,0.5,0.1,0.6,0.2
				l1.3,3.1C1271.8,262.4,1271.6,262.5,1271.3,262.5z"/>
			<path fill="#52677A" d="M1272.9,266.7h-22.3c-0.3,0-0.6-0.1-0.7-0.2l-0.9-3.2c0-0.1,0.2-0.2,0.5-0.2h21.9c0.3,0,0.6,0.1,0.7,0.2
				l1.3,3.2C1273.5,266.6,1273.2,266.7,1272.9,266.7z"/>
			<path fill="#52677A" d="M1131.8,262.5h-16.4c-0.3,0-0.5-0.1-0.4-0.2l1.3-3.1c0-0.1,0.3-0.2,0.6-0.2h16.1c0.3,0,0.5,0.1,0.5,0.2
				l-1,3.1C1132.4,262.4,1132.1,262.5,1131.8,262.5z"/>
			<path fill="#52677A" d="M1136.2,266.7h-22.6c-0.3,0-0.6-0.1-0.5-0.2l1.3-3.2c0.1-0.1,0.4-0.2,0.7-0.2h22.2c0.3,0,0.6,0.1,0.5,0.2
				l-0.9,3.2C1136.8,266.6,1136.5,266.7,1136.2,266.7z"/>
			<path fill="#52677A" d="M1152.2,258.5h-8.2c-0.2,0-0.4-0.1-0.3-0.1l0.8-3.1c0-0.1,0.2-0.1,0.4-0.1h8.1c0.2,0,0.4,0.1,0.3,0.1
				l-0.7,3.1C1152.5,258.4,1152.4,258.5,1152.2,258.5z"/>
			<path fill="#52677A" d="M1162.8,258.5h-8.2c-0.2,0-0.4-0.1-0.3-0.1l0.6-3.1c0-0.1,0.2-0.1,0.4-0.1h8.1c0.2,0,0.4,0.1,0.3,0.1
				l-0.5,3.1C1163.2,258.4,1163,258.5,1162.8,258.5z"/>
			<path fill="#52677A" d="M1173.6,258.5h-8.2c-0.2,0-0.4-0.1-0.4-0.1l0.5-3.1c0-0.1,0.2-0.1,0.4-0.1h8.1c0.2,0,0.4,0.1,0.4,0.1
				l-0.3,3.1C1174,258.4,1173.8,258.5,1173.6,258.5z"/>
			<path fill="#52677A" d="M1184.3,258.5h-8.2c-0.2,0-0.4-0.1-0.4-0.1l0.3-3.1c0-0.1,0.2-0.1,0.4-0.1h8.1c0.2,0,0.4,0.1,0.4,0.1
				l-0.1,3.1C1184.7,258.4,1184.5,258.5,1184.3,258.5z"/>
			<path fill="#52677A" d="M1195,258.5h-8.2c-0.2,0-0.4-0.1-0.4-0.1l0.1-3.1c0-0.1,0.2-0.1,0.4-0.1h8.1c0.2,0,0.4,0.1,0.4,0.1l0,3.1
				C1195.4,258.4,1195.2,258.5,1195,258.5z"/>
			<path fill="#52677A" d="M1205.5,258.5h-8.2c-0.2,0-0.4-0.1-0.4-0.1l-0.1-3.1c0-0.1,0.2-0.1,0.4-0.1h8.1c0.2,0,0.4,0.1,0.4,0.1
				l0.2,3.1C1205.8,258.4,1205.7,258.5,1205.5,258.5z"/>
			<path fill="#52677A" d="M1216.3,258.5h-8.2c-0.2,0-0.4-0.1-0.4-0.1l-0.2-3.1c0-0.1,0.2-0.1,0.4-0.1h8.1c0.2,0,0.4,0.1,0.4,0.1
				l0.4,3.1C1216.7,258.4,1216.5,258.5,1216.3,258.5z"/>
			<path fill="#52677A" d="M1227,258.5h-8.2c-0.2,0-0.4-0.1-0.4-0.1l-0.4-3.1c0-0.1,0.1-0.1,0.3-0.1h8.1c0.2,0,0.4,0.1,0.4,0.1
				l0.6,3.1C1227.4,258.4,1227.2,258.5,1227,258.5z"/>
			<path fill="#52677A" d="M1237.5,258.5h-8.2c-0.2,0-0.4-0.1-0.4-0.1l-0.6-3.1c0-0.1,0.1-0.1,0.3-0.1h8.1c0.2,0,0.4,0.1,0.4,0.1
				l0.7,3.1C1237.9,258.4,1237.7,258.5,1237.5,258.5z"/>
			<path fill="#52677A" d="M1248.5,258.5h-8.2c-0.2,0-0.4-0.1-0.4-0.1l-0.8-3.1c0-0.1,0.1-0.1,0.3-0.1h8.1c0.2,0,0.4,0.1,0.4,0.1
				l0.9,3.1C1248.8,258.4,1248.7,258.5,1248.5,258.5z"/>
			<path fill="#52677A" d="M1259,258.5h-8.2c-0.2,0-0.4-0.1-0.4-0.1l-0.9-3.1c0-0.1,0.1-0.1,0.3-0.1h8.1c0.2,0,0.4,0.1,0.4,0.1
				l1.1,3.1C1259.3,258.4,1259.2,258.5,1259,258.5z"/>
			<path fill="#52677A" d="M1269.8,258.5h-8.2c-0.2,0-0.4-0.1-0.4-0.1l-1.1-3.1c0-0.1,0.1-0.1,0.3-0.1h8.1c0.2,0,0.4,0.1,0.4,0.1
				l1.3,3.1C1270.1,258.4,1270,258.5,1269.8,258.5z"/>
			<path fill="#52677A" d="M1137.2,254.6h-8.1c-0.2,0-0.3-0.1-0.3-0.1l1-3c0-0.1,0.2-0.1,0.4-0.1h7.9c0.2,0,0.3,0.1,0.3,0.1l-0.9,3
				C1137.6,254.5,1137.4,254.6,1137.2,254.6z"/>
			<path fill="#52677A" d="M1147.5,254.6h-8.1c-0.2,0-0.3-0.1-0.3-0.1l0.9-3c0-0.1,0.2-0.1,0.4-0.1h7.9c0.2,0,0.3,0.1,0.3,0.1
				l-0.7,3C1147.9,254.5,1147.7,254.6,1147.5,254.6z"/>
			<path fill="#52677A" d="M1158.2,254.6h-8.1c-0.2,0-0.4-0.1-0.3-0.1l0.7-3c0-0.1,0.2-0.1,0.4-0.1h7.9c0.2,0,0.3,0.1,0.3,0.1
				l-0.6,3C1158.5,254.5,1158.4,254.6,1158.2,254.6z"/>
			<path fill="#52677A" d="M1168.5,254.6h-8.1c-0.2,0-0.4-0.1-0.3-0.1l0.5-3c0-0.1,0.2-0.1,0.4-0.1h7.9c0.2,0,0.4,0.1,0.3,0.1
				l-0.4,3C1168.9,254.5,1168.7,254.6,1168.5,254.6z"/>
			<path fill="#52677A" d="M1179.2,254.6h-8.1c-0.2,0-0.4-0.1-0.3-0.1l0.4-3c0-0.1,0.2-0.1,0.4-0.1h7.9c0.2,0,0.4,0.1,0.3,0.1
				l-0.2,3C1179.5,254.5,1179.4,254.6,1179.2,254.6z"/>
			<path fill="#52677A" d="M1189.4,254.6h-8.1c-0.2,0-0.4-0.1-0.4-0.1l0.2-3c0-0.1,0.2-0.1,0.4-0.1h7.9c0.2,0,0.4,0.1,0.4,0.1
				l-0.1,3C1189.8,254.5,1189.6,254.6,1189.4,254.6z"/>
			<path fill="#52677A" d="M1200.1,254.6h-8.1c-0.2,0-0.4-0.1-0.4-0.1l0-3c0-0.1,0.2-0.1,0.4-0.1h7.9c0.2,0,0.4,0.1,0.4,0.1l0.1,3
				C1200.4,254.5,1200.3,254.6,1200.1,254.6z"/>
			<path fill="#52677A" d="M1210.4,254.6h-8.1c-0.2,0-0.4-0.1-0.4-0.1l-0.1-3c0-0.1,0.2-0.1,0.4-0.1h7.9c0.2,0,0.4,0.1,0.4,0.1
				l0.3,3C1210.8,254.5,1210.6,254.6,1210.4,254.6z"/>
			<path fill="#52677A" d="M1221.1,254.6h-8.1c-0.2,0-0.4-0.1-0.4-0.1l-0.3-3c0-0.1,0.1-0.1,0.3-0.1h7.9c0.2,0,0.4,0.1,0.4,0.1
				l0.5,3C1221.4,254.5,1221.3,254.6,1221.1,254.6z"/>
			<path fill="#52677A" d="M1231.7,254.6h-8.1c-0.2,0-0.4-0.1-0.4-0.1l-0.5-3c0-0.1,0.1-0.1,0.3-0.1h7.9c0.2,0,0.4,0.1,0.4,0.1
				l0.6,3C1232,254.5,1231.9,254.6,1231.7,254.6z"/>
			<path fill="#52677A" d="M1242.2,254.6h-8.1c-0.2,0-0.4-0.1-0.4-0.1l-0.7-3c0-0.1,0.1-0.1,0.3-0.1h7.9c0.2,0,0.4,0.1,0.4,0.1
				l0.8,3C1242.5,254.5,1242.4,254.6,1242.2,254.6z"/>
			<path fill="#52677A" d="M1252.3,254.6h-8.1c-0.2,0-0.4-0.1-0.4-0.1l-0.8-3c0-0.1,0.1-0.1,0.3-0.1h7.9c0.2,0,0.4,0.1,0.4,0.1l1,3
				C1252.6,254.5,1252.5,254.6,1252.3,254.6z"/>
			<path fill="#52677A" d="M1267.4,254.6h-12.1c-0.6,0-1.1-0.2-1.1-0.4l-0.8-2.5c-0.1-0.2,0.3-0.4,0.9-0.4h11.9
				c0.5,0,1.1,0.2,1.1,0.4l1,2.5C1268.4,254.4,1268,254.6,1267.4,254.6z"/>
			<path fill="#52677A" d="M1129.9,258.5h-12.3c-0.6,0-1-0.2-0.9-0.4l1-2.6c0.1-0.2,0.6-0.4,1.2-0.4h12.1c0.6,0,1,0.2,0.9,0.4
				l-0.8,2.6C1130.9,258.3,1130.4,258.5,1129.9,258.5z"/>
			<rect x="1123" y="237.6" fill="#52677A" width="24.1" height="4.2"/>
			<rect x="1238.8" y="237.6" fill="#52677A" width="24.1" height="4.3"/>
		</g>
	</g>
</g>
<g id="PLANETS">
</g>
<g id="MASK">
	<g>
		<defs>
			<rect id="XMLID_1_" x="0.3" y="-4" width="1366" height="701"/>
		</defs>
		<clipPath id="XMLID_22_">
			<use xlink:href="#XMLID_1_"  overflow="visible"/>
		</clipPath>
		<g clip-path="url(#XMLID_22_)">
			<g>
				<g>
					<path fill="#939598" d="M1320.5,824c0.6,0.9,1.8,1.1,2.6,0.5c0.9-0.6,1.1-1.8,0.5-2.6c-0.6-0.9-1.8-1.1-2.6-0.5
						C1320.1,822,1319.9,823.2,1320.5,824z"/>
				</g>
			</g>
			<g>
				<path fill="#FF4569" d="M1509.1,642.7c-17.6-6.6-36.6-10.2-56.5-10.2c-25.8,0-50.1,6.1-71.7,16.8c0,0-0.8,0.4-1.1,0.6
					c-18.6,9.4-35.1,22.3-48.6,37.9c0,0-0.1,0.1-0.1,0.1c-24.7,28.3-39.7,65.4-39.7,105.9c0,5.5,0.3,11,0.8,16.4v0
					c0,0.3,0.1,0.6,0.1,0.9c2,18.6,7.1,36.4,14.9,52.6c26,54.1,81.3,91.5,145.4,91.5c89.1,0,161.3-72.2,161.3-161.3
					C1613.8,724.6,1570.3,665.6,1509.1,642.7z"/>
				<g opacity="0.4">
					<path fill="#7A5593" d="M1452.6,632.5c19.9,0,38.9,3.6,56.5,10.2c61.2,22.9,104.7,81.9,104.7,151.1
						c0,89.1-72.2,161.3-161.3,161.3c-64.1,0-119.4-37.4-145.4-91.5c-7.8-16.2-12.9-33.9-14.9-52.6c0-0.3-0.1-0.6-0.1-0.9v0
						c-0.5-5.4-0.8-10.8-0.8-16.4c0-40.5,15-77.6,39.7-105.9c0,0,0-0.1,0.1-0.1c13.6-15.5,30-28.5,48.6-37.9
						c0.4-0.2,1.1-0.6,1.1-0.6C1402.4,638.5,1426.8,632.5,1452.6,632.5L1452.6,632.5z M1452.6,539.8c-39.1,0-78.2,9.2-113.1,26.5
						l-0.2,0.1l0,0c0,0-0.8,0.4-1.6,0.8l0,0c-28.8,14.6-54.3,34.3-75.7,58.7c-0.3,0.4-0.6,0.7-1,1.1l0,0
						c-40.3,46.2-62.5,105.5-62.5,166.8c0,6.9,0.3,13.7,0.8,20.5v0.7l0.5,4.9l0,0.2l0.1,0.8c3.1,29,11,56.8,23.6,83
						c20.4,42.4,52.2,78.4,91.9,103.8c40.9,26.3,88.3,40.1,137,40.1c67.8,0,131.6-26.4,179.6-74.4c48-48,74.4-111.7,74.4-179.6
						c0-52.7-16-103.4-46.4-146.3c-29.6-42-70.6-73.6-118.6-91.5C1513.1,545.2,1483.2,539.8,1452.6,539.8L1452.6,539.8z"/>
				</g>
				<g opacity="0.7">
					<path fill="#7A5593" d="M1452.6,632.5c19.9,0,38.9,3.6,56.5,10.2c61.2,22.9,104.7,81.9,104.7,151.1
						c0,89.1-72.2,161.3-161.3,161.3c-64.1,0-119.4-37.4-145.4-91.5c-7.8-16.2-12.9-33.9-14.9-52.6c0-0.3-0.1-0.6-0.1-0.9v0
						c-0.5-5.4-0.8-10.8-0.8-16.4c0-40.5,15-77.6,39.7-105.9c0,0,0-0.1,0.1-0.1c13.6-15.5,30-28.5,48.6-37.9
						c0.4-0.2,1.1-0.6,1.1-0.6C1402.4,638.5,1426.8,632.5,1452.6,632.5L1452.6,632.5z M1452.6,605.1c-29.5,0-57.7,6.6-83.9,19.7
						c0,0-0.9,0.4-1.4,0.7c-21.4,10.9-40.4,25.6-56.3,43.7c-0.3,0.3-0.6,0.6-0.8,0.9c-29.8,34.3-46.2,78.2-46.2,123.6
						c0,5.9,0.3,11.9,0.8,17.7v0.1l0.2,1.4l0,0.4l0.1,0.5c2.3,21.5,8.2,42.2,17.5,61.5c15.2,31.5,38.8,58.2,68.3,77.2
						c30.4,19.5,65.5,29.8,101.7,29.8c104,0,188.6-84.6,188.6-188.6c0-39.2-11.9-76.7-34.4-108.7c-22-31.2-52.5-54.7-88.1-68
						C1497.6,609.2,1475.3,605.1,1452.6,605.1L1452.6,605.1z"/>
				</g>
			</g>
			
				<path fill="#EF00DE" stroke="#FF4569" stroke-width="13.4005" stroke-linecap="round" stroke-linejoin="round" stroke-miterlimit="10" d="
				M1364.7,814.2l53.9,44.9L1364.7,814.2z"/>
			
				<path fill="#EF00DE" stroke="#FF4569" stroke-width="14.1058" stroke-linecap="round" stroke-linejoin="round" stroke-miterlimit="10" d="
				M1388,755.9l53.9,44.9L1388,755.9z"/>
			
				<path fill="#EF00DE" stroke="#FF4569" stroke-width="14.1058" stroke-linecap="round" stroke-linejoin="round" stroke-miterlimit="10" d="
				M1450.3,729.1l61.5,50.5L1450.3,729.1z"/>
			
				<path fill="#EF00DE" stroke="#FF4569" stroke-width="14.1058" stroke-linecap="round" stroke-linejoin="round" stroke-miterlimit="10" d="
				M1495.9,689.6l61.5,50.5L1495.9,689.6z"/>
		</g>
		<g clip-path="url(#XMLID_22_)">
			<defs>
				<filter id="Adobe_OpacityMaskFilter" filterUnits="userSpaceOnUse" x="419.7" y="640.1" width="189.1" height="170.3">
					<feFlood  style="flood-color:white;flood-opacity:1" result="back"/>
					<feBlend  in="SourceGraphic" in2="back" mode="normal"/>
				</filter>
			</defs>
			<mask maskUnits="userSpaceOnUse" x="419.7" y="640.1" width="189.1" height="170.3" id="SVGID_1_">
				<g filter="url(#Adobe_OpacityMaskFilter)">
					<g>
						<path fill="#231F20" d="M606.8,828.2c-1.9,0-3.8-0.7-5.3-2L403.7,652.8c-3.3-2.9-3.7-8-0.7-11.3s8-3.7,11.3-0.7l197.9,173.5
							c3.3,2.9,3.7,8,0.7,11.3C611.2,827.3,609,828.2,606.8,828.2z"/>
					</g>
				</g>
			</mask>
			<g mask="url(#SVGID_1_)">
				<polygon fill="#9286C4" points="591,810.4 419.7,660.5 437.6,640.1 608.9,789.9 				"/>
			</g>
			<g>
				<g>
					<g>
						<g>
							<path fill="#939598" d="M449.7,743c0.3,0.4,0.8,0.5,1.2,0.2c0.4-0.3,0.5-0.8,0.2-1.2c-0.3-0.4-0.8-0.5-1.2-0.2
								C449.5,742.1,449.4,742.6,449.7,743z"/>
						</g>
					</g>
					<path opacity="0.3" fill="#231F20" d="M421.4,728.4c-0.5,0.2-1,0-1.2-0.5c-0.2-0.5,0.1-1,0.5-1.2c0.5-0.2,1,0.1,1.2,0.5
						C422.1,727.7,421.8,728.2,421.4,728.4z"/>
					<g>
						<path fill="#F7941E" d="M581.5,729.4c0,17.4-6.1,33.3-16.3,45.8c-4.8,5.8-10.4,10.9-16.8,15.1c-2.3,1.5-4.7,2.8-7.1,4.1
							c-5.4,2.7-11.2,4.7-17.3,6c-4.8,1-9.8,1.5-14.8,1.5c-28.8,0-53.6-16.8-65.3-41.1c-3.5-7.3-5.8-15.2-6.7-23.6
							c0-0.1,0-0.3,0-0.4v0c-0.2-2.4-0.4-4.9-0.4-7.3c0-3,0.2-5.9,0.5-8.8c1.1-9,3.8-17.5,7.9-25.2c1.3-2.5,2.8-4.9,4.4-7.2
							c1.5-2.2,3.2-4.4,5-6.4c0,0,0,0,0,0c0.4-0.5,0.8-0.9,1.2-1.4c5.8-6.4,12.8-11.7,20.6-15.6c0.2-0.1,0.5-0.3,0.5-0.3
							c9.7-4.8,20.7-7.5,32.2-7.5c8.9,0,17.5,1.6,25.4,4.6C561.9,671.8,581.5,698.3,581.5,729.4z"/>
						<g opacity="0.4">
							<path fill="#7A5593" d="M509,656.9c8.9,0,17.5,1.6,25.4,4.6c27.5,10.3,47.1,36.8,47.1,67.9c0,17.4-6.1,33.3-16.3,45.8
								c-4.8,5.8-10.4,10.9-16.8,15.1c-2.3,1.5-4.7,2.8-7.1,4.1c-5.4,2.7-11.2,4.7-17.3,6c-4.8,1-9.8,1.5-14.8,1.5
								c-28.8,0-53.6-16.8-65.3-41.1c-3.5-7.3-5.8-15.2-6.7-23.6c0-0.1,0-0.3,0-0.4v0c-0.2-2.4-0.4-4.9-0.4-7.3c0-3,0.2-5.9,0.5-8.8
								c1.1-9,3.8-17.5,7.9-25.2c1.3-2.5,2.8-4.9,4.4-7.2c1.5-2.2,3.2-4.4,5-6.4c0,0,0,0,0,0c0.4-0.5,0.8-0.9,1.2-1.4
								c5.8-6.4,12.8-11.7,20.6-15.6c0.2-0.1,0.5-0.3,0.5-0.3C486.5,659.7,497.5,656.9,509,656.9L509,656.9z M509,619.9
								c-17.1,0-33.5,3.8-48.7,11.4l-0.3,0.2l-0.3,0.2l-0.1,0h0c-11.8,6-22.2,13.9-31.2,23.6l0,0l0,0c-0.4,0.4-0.8,0.8-1.1,1.3
								c-0.4,0.5-0.8,0.9-1.2,1.4c-2.5,2.9-4.8,5.9-7,9c-2.4,3.5-4.7,7.2-6.7,10.9c-6.3,11.9-10.4,24.7-12,38.2
								c-0.5,4.3-0.8,8.8-0.8,13.2c0,3,0.1,6,0.4,9v0.7l0.3,2.2l0,0c1.3,12.4,4.7,24.3,10.1,35.5c8.8,18.3,22.5,33.8,39.6,44.8
								c17.6,11.3,38.1,17.3,59.1,17.3c7.5,0,15-0.8,22.4-2.3l0,0c9.1-1.9,18-4.9,26.3-9.1l0,0l0,0c3.6-1.8,7.2-3.9,10.7-6.1l0,0
								l0,0c9.6-6.2,18.2-13.9,25.4-22.7c15.9-19.5,24.7-44.1,24.7-69.2c0-22.7-6.9-44.6-20-63.1c-12.8-18.1-30.4-31.7-51.1-39.5
								C535.1,622.2,522.2,619.9,509,619.9L509,619.9z"/>
						</g>
						<g opacity="0.6">
							<path fill="#CC4B2E" d="M509,656.9c8.9,0,17.5,1.6,25.4,4.6c27.5,10.3,47.1,36.8,47.1,67.9c0,17.4-6.1,33.3-16.3,45.8
								c-4.8,5.8-10.4,10.9-16.8,15.1c-2.3,1.5-4.7,2.8-7.1,4.1c-5.4,2.7-11.2,4.7-17.3,6c-4.8,1-9.8,1.5-14.8,1.5
								c-28.8,0-53.6-16.8-65.3-41.1c-3.5-7.3-5.8-15.2-6.7-23.6c0-0.1,0-0.3,0-0.4v0c-0.2-2.4-0.4-4.9-0.4-7.3c0-3,0.2-5.9,0.5-8.8
								c1.1-9,3.8-17.5,7.9-25.2c1.3-2.5,2.8-4.9,4.4-7.2c1.5-2.2,3.2-4.4,5-6.4c0,0,0,0,0,0c0.4-0.5,0.8-0.9,1.2-1.4
								c5.8-6.4,12.8-11.7,20.6-15.6c0.2-0.1,0.5-0.3,0.5-0.3C486.5,659.7,497.5,656.9,509,656.9L509,656.9z M509,642.4
								c-13.6,0-26.6,3-38.7,9.1l-0.1,0.1l-0.1,0.1c0,0-0.2,0.1-0.3,0.1l0,0l0,0c-9.3,4.7-17.7,11-24.7,18.8l0,0l0,0
								c-0.4,0.4-0.8,0.9-1.2,1.3c-0.2,0.2-0.4,0.4-0.5,0.6c-2.1,2.4-4,4.9-5.8,7.4c-1.9,2.8-3.7,5.7-5.3,8.6
								c-5,9.4-8.2,19.6-9.5,30.3c-0.4,3.4-0.6,7-0.6,10.5c0,2.7,0.1,5.4,0.4,8v0.2l0.1,0.9l0,0.1l0,0.1c1.1,9.8,3.8,19.4,8.1,28.3
								c7,14.5,17.9,26.8,31.5,35.6c14,9,30.2,13.7,46.9,13.7c6,0,12-0.6,17.8-1.8c7.2-1.5,14.2-3.9,20.8-7.2
								c2.9-1.5,5.8-3.1,8.5-4.9c7.7-5,14.4-11,20.2-18.1c12.6-15.4,19.6-35,19.6-55c0-18.1-5.5-35.4-15.9-50.1
								c-10.1-14.4-24.2-25.2-40.6-31.4C529.8,644.3,519.5,642.4,509,642.4L509,642.4z"/>
						</g>
					</g>
				</g>
				<g>
					<path fill="#8E3925" d="M601.2,804.5c0.6-0.1,1.1-0.4,1.4-0.8L601.2,804.5z"/>
				</g>
			</g>
			<defs>
				<filter id="Adobe_OpacityMaskFilter_1_" filterUnits="userSpaceOnUse" x="378.2" y="619.3" width="257.9" height="230.7">
					<feFlood  style="flood-color:white;flood-opacity:1" result="back"/>
					<feBlend  in="SourceGraphic" in2="back" mode="normal"/>
				</filter>
			</defs>
			<mask maskUnits="userSpaceOnUse" x="378.2" y="619.3" width="257.9" height="230.7" id="SVGID_2_">
				<g filter="url(#Adobe_OpacityMaskFilter_1_)">
					<g>
						<path fill="#231F20" d="M606.8,828.2c-1.9,0-3.8-0.7-5.3-2L403.7,652.8c-3.3-2.9-3.7-8-0.7-11.3s8-3.7,11.3-0.7l197.9,173.5
							c3.3,2.9,3.7,8,0.7,11.3C611.2,827.3,609,828.2,606.8,828.2z"/>
					</g>
				</g>
			</mask>
			<g mask="url(#SVGID_2_)">
				<path fill="#9286C4" d="M614.8,850c-8.9,0-19.3-4.5-28.4-12.4L394.5,671.8c-16.2-14-21-33.1-11.3-44.4c4.1-4.7,9.9-7.6,16.6-8.1
					c8.4-0.6,17.3,2.6,24.4,8.9l13.5,11.8l-16.5,18.9l172.2,148.7l15.7-17.6l14,12.5c13.6,12.1,17.1,29.3,8.2,40.2
					c-3.4,4.2-8.5,6.7-14.3,7.2C616.2,849.9,615.5,850,614.8,850z"/>
			</g>
		</g>
		<g id="XMLID_50_" clip-path="url(#XMLID_22_)">
			<polygon id="XMLID_55_" fill="#FFFFFF" points="166.4,588.1 164.7,583.5 159.9,582.4 164.5,580.7 165.6,575.9 167.3,580.5 
				172.1,581.6 167.5,583.3 			"/>
			<path id="XMLID_54_" opacity="0.18" fill="#6A37A1" d="M188.3,586.4c0,13.9-11.3,25.2-25.2,25.2s-25.2-11.3-25.2-25.2
				c0-13.9,11.3-25.2,25.2-25.2S188.3,572.5,188.3,586.4z"/>
			<circle id="XMLID_53_" opacity="0.18" fill="#6A37A1" cx="163.1" cy="586.4" r="22.1"/>
			<path id="XMLID_52_" fill="#6A37A1" d="M181.1,586.4c0,9.9-8,18-18,18c-9.9,0-18-8-18-18c0-9.9,8-18,18-18
				C173.1,568.5,181.1,576.5,181.1,586.4z"/>
			<path id="XMLID_51_" fill="#5B2D8C" d="M170.2,597.3c-9.9,0-18-8-18-18c0-3.1,0.8-6.1,2.2-8.6c-5.6,3.1-9.3,9-9.3,15.8
				c0,9.9,8,18,18,18c6.8,0,12.7-3.8,15.8-9.3C176.3,596.5,173.4,597.3,170.2,597.3z"/>
		</g>
		<g clip-path="url(#XMLID_22_)">
			<g>
				<g opacity="0.1">
					<path fill="#FA7B72" d="M-313.3,646.4c3.6,0,7.1,0.5,10.4,1.4c0,0,0.1,0,0.1,0c0.9,0.2,1.8,0.5,2.7,0.8
						c0.3,0.1,0.6,0.2,0.9,0.3c0.4,0.2,0.9,0.3,1.3,0.5c4.9,2,9.4,5,13.1,8.8c7.3,7.3,11.8,17.4,11.8,28.5
						c0,22.3-18.1,40.3-40.3,40.3c-7,0-13.6-1.8-19.3-4.9c-5.6-3.1-10.4-7.5-14-12.7c-2.3-3.4-4.2-7.2-5.3-11.3
						c-0.5-1.9-1-3.8-1.2-5.8c-0.3-1.8-0.4-3.7-0.4-5.6c0-1.7,0.1-3.4,0.3-5c0,0,0-0.1,0-0.1c0.5-3.7,1.4-7.2,2.8-10.4
						c0,0,2.9-5.9,4.9-8.5c0,0,0,0,0,0c0.4-0.5,0.8-1,1.2-1.5c0.4-0.5,0.9-1,1.3-1.5c0.4-0.5,0.9-0.9,1.3-1.4c1.8-1.8,3.9-3.5,6-5
						c0.5-0.4,1.1-0.7,1.6-1c0.6-0.3,1.2-0.7,1.7-1c0.6-0.3,1.1-0.6,1.7-0.9c0.7-0.3,1.4-0.6,2.1-0.9c0.5-0.2,1.1-0.4,1.6-0.6
						c0.3-0.1,0.6-0.2,0.9-0.3c0.6-0.2,1.3-0.4,1.9-0.6c0.3-0.1,0.6-0.2,1-0.3c0.6-0.2,1.2-0.3,1.8-0.4c0.1,0,0.1,0,0.2,0
						c0.3-0.1,0.6-0.1,0.9-0.2c0.3-0.1,0.7-0.1,1-0.2C-317.3,646.5-315.3,646.4-313.3,646.4L-313.3,646.4z M-313.3,609.4
						c-3.9,0-7.8,0.3-11.6,0.9l0,0l0,0c-0.6,0.1-1.2,0.2-1.8,0.3l-0.2,0l-0.2,0l-0.5,0.1l-0.4,0.1l-0.3,0l-0.3,0.1l0,0l0,0l-0.1,0
						l-0.2,0l-0.2,0c-0.8,0.2-2,0.4-3.4,0.8l-0.1,0l-0.1,0c-0.5,0.1-1.1,0.3-1.6,0.4c-1.2,0.3-2.4,0.7-3.7,1.1
						c-0.7,0.2-1.4,0.5-2.1,0.7c-1,0.4-1.9,0.7-2.8,1.1l0,0l0,0c-1.3,0.5-2.6,1.1-3.9,1.7l-0.2,0.1l-0.2,0.1
						c-0.9,0.5-1.9,0.9-2.9,1.5l-0.2,0.1l-0.2,0.1c-1.1,0.6-2.1,1.2-3,1.7l-0.2,0.1l-0.2,0.1c-0.7,0.5-1.7,1.1-2.9,1.9
						c-4.1,2.7-7.9,5.9-11.4,9.4c-0.9,0.9-1.7,1.8-2.6,2.7c-0.7,0.8-1.5,1.7-2.3,2.6l-0.2,0.2l-0.2,0.2c0,0.1-0.1,0.1-0.1,0.2
						l-0.3,0.3l-1.7,2.3c-3.5,4.6-6.7,10.9-8.4,14.3l-0.5,1.1l-0.5,1.1c-2.3,5.6-4,11.4-4.9,17.4l-0.1,0.6l-0.3,2.3
						c-0.4,3.1-0.6,6.4-0.6,9.6c0,3.6,0.3,7.2,0.7,10.7c0.5,3.7,1.3,7.4,2.4,11.1c2.3,7.7,5.7,15,10.2,21.7
						c6.8,10.1,16.1,18.5,26.8,24.3l0,0c11.3,6.2,24.2,9.5,37.1,9.5c42.6,0,77.3-34.7,77.3-77.3c0-20.7-8-40-22.6-54.6l0,0
						c-7.2-7.2-15.7-12.9-25.1-16.8c-0.9-0.4-1.8-0.7-2.7-1.1l-0.1,0l-0.1,0l-0.1,0c-0.4-0.1-0.7-0.3-1.1-0.4l-0.1,0l-0.1,0
						c-1.4-0.5-2.9-1-4.3-1.4l-0.1,0l-1-0.3C-299.8,610.3-306.5,609.4-313.3,609.4L-313.3,609.4z"/>
				</g>
				<g opacity="0.4">
					<path fill="#D6347E" d="M-313.3,646.4c3.6,0,7.1,0.5,10.4,1.4c0,0,0.1,0,0.1,0c0.9,0.2,1.8,0.5,2.7,0.8
						c0.3,0.1,0.6,0.2,0.9,0.3c0.4,0.2,0.9,0.3,1.3,0.5c4.9,2,9.4,5,13.1,8.8c7.3,7.3,11.8,17.4,11.8,28.5
						c0,22.3-18.1,40.3-40.3,40.3c-7,0-13.6-1.8-19.3-4.9c-5.6-3.1-10.4-7.5-14-12.7c-2.3-3.4-4.2-7.2-5.3-11.3
						c-0.5-1.9-1-3.8-1.2-5.8c-0.3-1.8-0.4-3.7-0.4-5.6c0-1.7,0.1-3.4,0.3-5c0,0,0-0.1,0-0.1c0.5-3.7,1.4-7.2,2.8-10.4
						c0,0,2.9-5.9,4.9-8.5c0,0,0,0,0,0c0.4-0.5,0.8-1,1.2-1.5c0.4-0.5,0.9-1,1.3-1.5c0.4-0.5,0.9-0.9,1.3-1.4c1.8-1.8,3.9-3.5,6-5
						c0.5-0.4,1.1-0.7,1.6-1c0.6-0.3,1.2-0.7,1.7-1c0.6-0.3,1.1-0.6,1.7-0.9c0.7-0.3,1.4-0.6,2.1-0.9c0.5-0.2,1.1-0.4,1.6-0.6
						c0.3-0.1,0.6-0.2,0.9-0.3c0.6-0.2,1.3-0.4,1.9-0.6c0.3-0.1,0.6-0.2,1-0.3c0.6-0.2,1.2-0.3,1.8-0.4c0.1,0,0.1,0,0.2,0
						c0.3-0.1,0.6-0.1,0.9-0.2c0.3-0.1,0.7-0.1,1-0.2C-317.3,646.5-315.3,646.4-313.3,646.4L-313.3,646.4z M-313.3,636.7
						c-2.5,0-5,0.2-7.5,0.6c-0.4,0.1-0.8,0.1-1.2,0.2l-0.1,0l0,0l-0.5,0.1l-0.4,0.1l-0.1,0l-0.1,0l-0.1,0l-0.1,0l0,0l0,0
						c-0.6,0.1-1.4,0.3-2.2,0.5c-0.4,0.1-0.8,0.2-1.2,0.3c-0.8,0.2-1.6,0.5-2.4,0.7c-0.4,0.1-0.8,0.3-1.3,0.4
						c-0.7,0.3-1.3,0.5-1.9,0.7c-0.8,0.3-1.7,0.7-2.6,1.1l0,0l0,0c-0.6,0.3-1.3,0.6-2,1l0,0l0,0c-0.8,0.4-1.5,0.8-2.1,1.2l-0.1,0
						l-0.1,0c-0.5,0.3-1.2,0.8-1.9,1.3c-2.6,1.8-5.1,3.8-7.4,6.1c-0.6,0.6-1.1,1.2-1.7,1.7c-0.5,0.5-1,1.1-1.6,1.8l0,0l0,0
						c-0.3,0.4-0.7,0.8-1,1.2l0,0l0,0l0,0l-0.4,0.6c-2.4,3.2-5.2,8.9-5.8,10l-0.1,0.3l-0.1,0.3c-1.6,3.9-2.8,8.1-3.4,12.3l0,0.1
						l-0.1,0.6l0,0.1c-0.3,2-0.4,4.1-0.4,6.2c0,2.4,0.2,4.7,0.5,7c0.3,2.4,0.8,4.8,1.5,7.2c1.5,5,3.7,9.7,6.6,14
						c4.4,6.5,10.5,12,17.4,15.8c7.3,4,15.6,6.1,24,6.1c27.6,0,50-22.4,50-50c0-13.4-5.2-26-14.7-35.4c-4.7-4.7-10.1-8.3-16.3-10.9
						c-0.5-0.2-1.1-0.4-1.7-0.7l0,0l0,0l-0.1,0c-0.3-0.1-0.6-0.2-0.9-0.3c-1.1-0.4-2.2-0.7-3.2-1l0,0l-0.3-0.1
						C-304.5,637.2-308.9,636.7-313.3,636.7L-313.3,636.7z"/>
				</g>
				<path fill="#FF3977" d="M-272.9,686.7c0,22.3-18.1,40.3-40.3,40.3c-7,0-13.6-1.8-19.3-4.9c-5.6-3.1-10.4-7.5-14-12.7
					c-2.3-3.4-4.2-7.2-5.3-11.3c-0.5-1.9-1-3.8-1.2-5.8c-0.3-1.8-0.4-3.7-0.4-5.6c0-1.7,0.1-3.4,0.3-5c0,0,0-0.1,0-0.1
					c0.5-3.7,1.4-7.2,2.8-10.4c0,0,2.9-5.9,4.9-8.5c0,0,0,0,0,0c0.4-0.5,0.8-1,1.2-1.5c0.4-0.5,0.9-1,1.3-1.5
					c0.4-0.5,0.9-0.9,1.3-1.4c1.8-1.8,3.9-3.5,6-5c0.5-0.4,1.1-0.7,1.6-1c0.6-0.3,1.2-0.7,1.7-1c0.6-0.3,1.1-0.6,1.7-0.9
					c0.7-0.3,1.4-0.6,2.1-0.9c0.5-0.2,1.1-0.4,1.6-0.6c0.3-0.1,0.6-0.2,0.9-0.3c0.6-0.2,1.3-0.4,1.9-0.6c0.3-0.1,0.6-0.2,1-0.3
					c0.6-0.2,1.2-0.3,1.8-0.4c0.1,0,0.1,0,0.2,0c0.3-0.1,0.6-0.1,0.9-0.2c0.3-0.1,0.7-0.1,1-0.2c2-0.3,4-0.4,6-0.4
					c3.6,0,7.1,0.5,10.4,1.4c0,0,0.1,0,0.1,0c0.9,0.2,1.8,0.5,2.7,0.8c0.3,0.1,0.6,0.2,0.9,0.3c0.4,0.2,0.9,0.3,1.3,0.5
					c4.9,2,9.4,5,13.1,8.8C-277.4,665.5-272.9,675.6-272.9,686.7z"/>
			</g>
			<g>
				<path fill="#F99D4B" d="M-296.6,653l-2.9-2.4l0,0c0,0,0.6-0.4,1.6-1.1c-0.4-0.2-0.9-0.4-1.3-0.5c-0.3-0.1-0.6-0.2-0.9-0.3
					c-0.9-0.3-1.9-0.6-2.8-0.9l0,0c-3.3-0.9-6.8-1.4-10.4-1.4c-2,0-4,0.1-6,0.4c-0.3,0.1-0.7,0.1-1,0.2c-0.3,0.1-0.6,0.1-0.9,0.2
					c-0.1,0-0.1,0-0.2,0c-0.6,0.1-1.2,0.3-1.8,0.4c-0.3,0.1-0.6,0.2-1,0.3c-0.6,0.2-1.3,0.4-1.9,0.6c-0.3,0.1-0.6,0.2-0.9,0.3
					c-0.5,0.2-1.1,0.4-1.6,0.6c-0.7,0.3-1.4,0.6-2.1,0.9c-0.6,0.3-1.1,0.6-1.7,0.9c-0.6,0.3-1.2,0.7-1.7,1c-0.5,0.3-1.1,0.7-1.6,1
					c-2.2,1.5-4.2,3.1-6,5c-0.5,0.5-0.9,0.9-1.3,1.4c-0.4,0.5-0.9,1-1.3,1.5c-0.4,0.5-0.8,1-1.2,1.5c0,0,0,0,0,0
					c-2,2.6-3.6,5.5-4.9,8.5h0c-1.4,3.3-2.3,6.8-2.8,10.4l0,0c0,0,0,0.1,0,0.1c0,0,0,0,0,0c-0.2,1.6-0.3,3.3-0.3,5
					c0,1.9,0.1,3.8,0.4,5.6c0.9,6.3,3.2,12.1,6.6,17.1c1.2-0.1,2.3-0.7,3.1-1.7c1.1-1.3,1.4-3,0.9-4.5l1.5,1.2
					c0.9,0.8,2,1.1,3.1,1.1c1.4,0,2.8-0.6,3.8-1.8c1.7-2.1,1.4-5.2-0.6-6.9l-3.5-2.4c0.7,0.4,1-1.9,1.8-1.9c1.4,0-0.3-1.4,0.6-2.6
					c1.7-2.1,4.3,0.3,2.3-1.5h-0.8l3.9-1l9.9,7.9c0.9,0.7,2,1.1,3.1,1.1c1.4,0,2.9-0.6,3.8-1.8c1.7-2.1,1.4-5.2-0.8-6.9l-7-5.8
					c0.2,0,0.4,0.1,0.6,0.1c1.4,0,2.8-0.6,3.8-1.8c1.7-2.1,1.4-5.2-0.6-6.9l-7.3-6.1c0,0,0,0,0.1,0l15.2,12.2c0.9,0.7,1.9,1,2.9,1
					c1.4,0,2.7-0.6,3.6-1.7c1.6-2,1.3-4.9-0.7-6.5l-13-10.5c2.1-1.5,5.5-3.7,8.7-5.7l5.4,4.5c0.9,0.8,2,1.1,3.1,1.1
					c1.4,0,2.8-0.6,3.8-1.8C-294.2,657.8-294.5,654.7-296.6,653z"/>
			</g>
			
				<path fill="#D30079" stroke="#FF3977" stroke-width="9.7378" stroke-linecap="round" stroke-linejoin="round" stroke-miterlimit="10" d="
				M-312.3,658.9l17.4,14.5L-312.3,658.9z"/>
			<g>
				<path fill="#FF3977" d="M-284.7,658.2c-0.8,0.5-1.8,0.8-2.7,0.8c-1.1,0-2.2-0.4-3.1-1.1l-12.2-10.1c0.9,0.2,1.8,0.5,2.7,0.8
					c0.3,0.1,0.6,0.2,0.9,0.3c0.4,0.2,0.9,0.3,1.3,0.5C-292.9,651.5-288.5,654.5-284.7,658.2z"/>
			</g>
			<g>
				<path fill="#D30079" d="M-350.6,702.8l17.4,14.5L-350.6,702.8z"/>
				<path fill="#FF3977" d="M-329.4,720.4c-0.8,1-2,1.6-3.2,1.7c-5.6-3.1-10.4-7.5-14-12.7c-2.3-3.4-4.2-7.2-5.3-11.3
					c1.5-0.5,3.2-0.2,4.5,0.9l17.4,14.5C-328,715.2-327.7,718.3-329.4,720.4z"/>
			</g>
			
				<path fill="#D30079" stroke="#FF3977" stroke-width="9.7378" stroke-linecap="round" stroke-linejoin="round" stroke-miterlimit="10" d="
				M-335.8,689.6l10.1,8.4L-335.8,689.6z"/>
			
				<path fill="#D30079" stroke="#FF3977" stroke-width="9.7378" stroke-linecap="round" stroke-linejoin="round" stroke-miterlimit="10" d="
				M-323,674.4l17.1,14.4L-323,674.4z"/>
		</g>
		<g clip-path="url(#XMLID_22_)">
			<g>
				<path fill="#008ECE" d="M417,145c0,22.3-18.1,40.4-40.4,40.4c-16.1,0-30-9.4-36.5-23.1c-0.3-0.7-0.7-1.4-0.9-2.1
					c-1.3-3.3-2.3-6.8-2.7-10.5c0-0.3-0.1-0.5-0.1-0.8c-0.1-1.3-0.2-2.7-0.2-4c0-0.8,0-1.5,0.1-2.3l0.1-1.3c0.2-2.1,0.5-4.1,1-6
					c0.5-2.2,1.2-4.3,2.1-6.3l0.1-0.1c0.8-1.9,1.8-3.8,3-5.6c1.1-1.8,2.4-3.5,3.8-5.1c0,0,0.1-0.1,0.1-0.1c1.4-1.6,2.9-3.1,4.6-4.4
					c1.6-1.3,3.2-2.4,4.9-3.5c0.2-0.1,0.3-0.2,0.5-0.3c1.8-1.1,3.8-2,5.8-2.8h0c2.4-0.9,4.8-1.6,7.4-2.1h0c2.3-0.4,4.7-0.6,7.2-0.6
					c0.6,0,1.1,0,1.7,0c4.5,0.2,8.9,1.1,12.9,2.7C406.3,113.2,417,127.9,417,145z"/>
				<g opacity="0.2">
					<path fill="#3D6181" d="M376.6,104.6c0.6,0,1.1,0,1.7,0c4.5,0.2,8.9,1.1,12.9,2.7c15.1,5.9,25.8,20.5,25.8,37.7
						c0,22.3-18.1,40.4-40.4,40.4c-16.1,0-30-9.4-36.5-23.1c-0.3-0.7-0.7-1.4-0.9-2.1c-1.3-3.3-2.3-6.8-2.7-10.5
						c0-0.3-0.1-0.5-0.1-0.8c-0.1-1.3-0.2-2.7-0.2-4c0-0.8,0-1.5,0.1-2.3l0.1-1.3c0.2-2.1,0.5-4.1,1-6c0.5-2.2,1.2-4.3,2.1-6.3
						l0.1-0.1c0.8-1.9,1.8-3.8,3-5.6c1.1-1.8,2.4-3.5,3.8-5.1c0,0,0.1-0.1,0.1-0.1c1.4-1.6,2.9-3.1,4.6-4.4c1.6-1.3,3.2-2.4,4.9-3.5
						c0.2-0.1,0.3-0.2,0.5-0.3c1.8-1.1,3.8-2,5.8-2.8h0c2.4-0.9,4.8-1.6,7.4-2.1h0C371.8,104.8,374.2,104.6,376.6,104.6L376.6,104.6
						z M376.6,79.4c-3,0-6.1,0.2-9.1,0.6h-0.3l-2.2,0.4c-2.4,0.4-4.8,1-7.1,1.7h-0.6l-4.4,1.7c-3.1,1.2-6.2,2.7-9.1,4.4
						c-0.4,0.2-0.7,0.4-0.8,0.5l-0.1,0l-0.1,0.1c-2.8,1.7-5.5,3.6-8,5.7l0,0l0,0c-2.5,2.1-4.9,4.4-7.1,6.8c-0.3,0.3-0.5,0.6-0.7,0.8
						c-2.1,2.5-4.1,5.1-5.9,7.9c-1.8,2.9-3.4,5.9-4.8,9.1l0,0l0,0l-0.1,0.1c-1.4,3.3-2.6,6.7-3.4,10.2c-0.8,3.2-1.3,6.5-1.6,9.8
						l0,0.2l0,0.2l-0.1,1.3l0,0.2l0,0.2c-0.1,1.2-0.1,2.4-0.1,3.8c0,2.1,0.1,4.2,0.3,6.3c0,0.5,0.1,1,0.2,1.5
						c0.7,5.8,2.2,11.5,4.4,16.9c0.5,1.3,1,2.4,1.6,3.6c5.2,11,13.4,20.3,23.7,26.9c10.6,6.8,22.9,10.5,35.6,10.5
						c36.2,0,65.7-29.5,65.7-65.7c0-13.5-4.1-26.5-11.8-37.5c-7.5-10.8-17.9-19-30.2-23.7c-6.7-2.6-13.8-4.1-21-4.4
						C378.4,79.4,377.5,79.4,376.6,79.4L376.6,79.4z"/>
				</g>
				<path fill="#3D4A81" d="M376.6,104.6c0.6,0,1.1,0,1.7,0c4.5,0.2,8.9,1.1,12.9,2.7c15.1,5.9,25.8,20.5,25.8,37.7
					c0,22.3-18.1,40.4-40.4,40.4c-16.1,0-30-9.4-36.5-23.1c-0.3-0.7-0.7-1.4-0.9-2.1c-1.3-3.3-2.3-6.8-2.7-10.5
					c0-0.3-0.1-0.5-0.1-0.8c-0.1-1.3-0.2-2.7-0.2-4c0-0.8,0-1.5,0.1-2.3l0.1-1.3c0.2-2.1,0.5-4.1,1-6c0.5-2.2,1.2-4.3,2.1-6.3
					l0.1-0.1c0.8-1.9,1.8-3.8,3-5.6c1.1-1.8,2.4-3.5,3.8-5.1c0,0,0.1-0.1,0.1-0.1c1.4-1.6,2.9-3.1,4.6-4.4c1.6-1.3,3.2-2.4,4.9-3.5
					c0.2-0.1,0.3-0.2,0.5-0.3c1.8-1.1,3.8-2,5.8-2.8h0c2.4-0.9,4.8-1.6,7.4-2.1h0C371.8,104.8,374.2,104.6,376.6,104.6L376.6,104.6z
					 M376.6,95.2c-2.7,0-5.3,0.2-8,0.6h0l-0.8,0.1c-2.5,0.4-5,1.1-7.4,1.9h-0.1l-1.6,0.6c-2.4,0.9-4.8,2.1-7,3.4
					c-0.2,0.1-0.4,0.2-0.5,0.3l-0.1,0l0,0l-0.1,0c-2.1,1.3-4.2,2.7-6.1,4.3c-2,1.6-3.8,3.4-5.5,5.3c-0.1,0.1-0.2,0.3-0.4,0.4
					c-1.7,1.9-3.2,3.9-4.5,6.1c-1.4,2.2-2.6,4.5-3.6,6.9l-0.1,0.2c-1.1,2.5-1.9,5.1-2.6,7.8c-0.6,2.4-1,4.9-1.2,7.4l0,0.1l0,0.1
					l-0.1,1.3l0,0.1l0,0.1c-0.1,0.9-0.1,1.8-0.1,2.8c0,1.6,0.1,3.2,0.2,4.8c0,0.3,0.1,0.7,0.1,1c0.5,4.4,1.6,8.8,3.3,12.9
					c0.4,1,0.8,1.8,1.2,2.7c8.2,17.3,25.9,28.4,45,28.4c27.5,0,49.9-22.4,49.9-49.9c0-10.3-3.1-20.1-8.9-28.5
					c-5.7-8.2-13.6-14.4-22.9-18c-5.1-2-10.5-3.1-16-3.3C378,95.2,377.3,95.2,376.6,95.2L376.6,95.2z"/>
			</g>
			<g>
				<path fill="#32D5FC" d="M339.4,129.2c-0.9,2-1.6,4.1-2.1,6.3c-0.5,2-0.8,4-1,6l-0.1,1.3l14.2,11.8l1.9,1.6c1.2,1,2.6,1.5,4,1.5
					c1.8,0,3.6-0.8,4.9-2.3c2.2-2.7,1.9-6.7-0.8-8.9l-9.4-8.4l-0.6-0.6l-10.9-8.4L339.4,129.2z"/>
			</g>
			<g>
				<path fill="#32D5FC" d="M383.4,125.1c-1.3,1.5-3,2.3-4.9,2.3c-0.3,0-0.5,0-0.8-0.1c-1.2-0.1-2.3-0.6-3.3-1.4l-18.6-15.5
					c0.2-0.1,0.3-0.2,0.5-0.3c1.8-1.1,3.8-2,5.8-2.8h0c2.4-0.9,4.8-1.6,7.4-2.1h0c0,0,0,0,0.1,0l15.8,10.1
					C387.9,117.6,385.6,122.4,383.4,125.1z"/>
			</g>
			<g>
				<path fill="#32D5FC" d="M336.4,141.5l12.1,10.1c1,0.8,1.7,1.9,2,3.1c0.6,2,0.2,4.1-1.2,5.8c-1.2,1.5-3,2.3-4.9,2.3
					c-1.4,0-2.9-0.5-4-1.5l-1.2-1c-1.3-3.3-2.3-6.8-2.7-10.5c-0.2-1.6-0.3-3.1-0.3-4.8c0-0.8,0-1.5,0.1-2.3L336.4,141.5z"/>
			</g>
			<g>
				<path fill="#008ECE" d="M367.4,176.8c-1.2,1.5-3,2.3-4.9,2.3c-1.4,0-2.9-0.5-4-1.5l-18.4-15.3c-0.3-0.7-0.7-1.4-0.9-2.1
					c-1.3-3.3-2.3-6.8-2.7-10.5c0-0.3-0.1-0.5-0.1-0.8c2.3-1.7,5.5-1.6,7.7,0.3l22.4,18.7C369.2,170.2,369.6,174.2,367.4,176.8z"/>
			</g>
			<g>
				<path fill="#32D5FC" d="M401.3,123.1c-1.2,1.5-2.9,2.2-4.7,2.2c-1.3,0-2.6-0.4-3.8-1.3l-23.4-18.7c0,0,0,0-0.1,0
					c2.3-0.4,4.7-0.6,7.2-0.6c0.6,0,1.1,0,1.7,0c4.5,0.2,8.9,1.1,12.9,2.7l9.1,7.3C402.9,116.7,403.4,120.5,401.3,123.1z"/>
			</g>
			<g>
				<path fill="#32D5FC" d="M394.5,140.7l-16.7-13.4l-21.4-17.2c-0.2,0.1-0.3,0.2-0.5,0.3c-1.7,1-3.4,2.2-4.9,3.5
					c-1.6,1.4-3.2,2.8-4.6,4.4l0.5,0.4l-0.6-0.3c-1.4,1.6-2.7,3.3-3.8,5.1c-1.1,1.8-2.1,3.6-3,5.6l-0.1,0.1l9.1,7.6
					c0.3,0.3,0.7,0.5,1.1,0.7h0c0.9,0.5,1.9,0.7,3,0.7c1.8,0,3.6-0.8,4.9-2.3c1.2-1.5,2.5-4,3-6.3l26.1,20.9
					c1.2,0.9,2.6,1.4,3.9,1.4c1.8,0,3.7-0.8,4.9-2.4C397.6,146.9,397.2,142.9,394.5,140.7z"/>
			</g>
			
				<path fill="#D30079" stroke="#008ECE" stroke-width="12.5602" stroke-linecap="round" stroke-linejoin="round" stroke-miterlimit="10" d="
				M375.7,117.5l25.6,21L375.7,117.5z"/>
			
				<path fill="#D30079" stroke="#008ECE" stroke-width="12.5602" stroke-linecap="round" stroke-linejoin="round" stroke-miterlimit="10" d="
				M354.9,133l17.3,14.9L354.9,133z"/>
		</g>
		<g id="XMLID_20_" clip-path="url(#XMLID_22_)">
			<path id="XMLID_49_" fill="#CF6F60" d="M885.6,136.3c0-1-0.1-1.9-0.2-2.9l-0.6-7.7l-7.6,1.3c-1,0.2-1.9,0.3-2.9,0.5
				c-10.9,2.2-21.4,6.4-31.3,12l38.7,30C884.8,158.7,886.2,147.5,885.6,136.3z"/>
			<polygon id="XMLID_48_" fill="#CF6F60" points="788.8,204.9 769.4,209.3 753.8,229.4 784.3,231.2 			"/>
			<polygon id="XMLID_47_" fill="#CF6F60" points="832.1,238.4 832.7,258.4 817.1,278.5 807.7,249.4 			"/>
			<path id="XMLID_46_" fill="#CF6F60" d="M844.4,146.6c-22.6,15.4-42.3,39.1-53.8,65.6l-10.4,24l12.1,9.4l12.1,9.4l20.6-16
				c22.8-17.7,40.9-42.7,50.1-68.4L844.4,146.6z"/>
			<path id="XMLID_45_" fill="#E9F8FF" d="M843.1,139.6c-24.3,14.1-44.2,37.6-54.2,65.3l-9.1,25l15.2,11.8l15.2,11.8l21.9-15
				c24.2-16.6,42.1-41.7,49.7-68.8L843.1,139.6z"/>
			
				<rect id="XMLID_44_" x="796.6" y="215.6" transform="matrix(0.7905 0.6125 -0.6125 0.7905 312.4693 -439.433)" fill="#CF6F60" width="3.9" height="42.8"/>
			<g id="XMLID_29_">
				<path id="XMLID_43_" fill="#CF6F60" d="M860.9,189.2c-6.8,8.7-19.3,10.3-28.1,3.6c-8.7-6.8-10.3-19.3-3.6-28.1
					c6.8-8.7,19.3-10.3,28.1-3.6C866,168,867.6,180.5,860.9,189.2z"/>
				<path id="XMLID_42_" fill="#1DAAEB" d="M842.3,162.5c-3.5,0.6-6.7,2.5-9.1,5.5c-5,6.5-3.9,15.9,2.7,20.9
					c4.6,3.6,10.7,4,15.7,1.6c-2.8-3.4-5.3-7.3-7.2-11.7C842.2,174,841.5,168.1,842.3,162.5z"/>
				<path id="XMLID_41_" fill="#1DCCEB" d="M854.1,165.3c-3.5-2.7-7.8-3.6-11.9-2.9c-0.8,5.7-0.1,11.5,2,16.4
					c2,4.4,4.4,8.2,7.2,11.7c2-1,3.8-2.4,5.3-4.3C861.8,179.7,860.6,170.4,854.1,165.3z"/>
			</g>
		</g>
	</g>
</g>
</svg>
